<?xml version="1.0" encoding="UTF-8" standalone="no"?>
<svg
   data-name="Layer 1"
   id="Layer_1"
   viewBox="0 0 24 24"
   version="1.1"
   sodipodi:docname="mscz.svg"
   inkscape:version="1.2.1 (9c6d41e410, 2022-07-14)"
   xmlns:inkscape="http://www.inkscape.org/namespaces/inkscape"
   xmlns:sodipodi="http://sodipodi.sourceforge.net/DTD/sodipodi-0.dtd"
   xmlns="http://www.w3.org/2000/svg"
   xmlns:svg="http://www.w3.org/2000/svg">
  <sodipodi:namedview
     id="namedview19"
     pagecolor="#505050"
     bordercolor="#eeeeee"
     borderopacity="1"
     inkscape:showpageshadow="0"
     inkscape:pageopacity="0"
     inkscape:pagecheckerboard="0"
     inkscape:deskcolor="#505050"
     showgrid="false"
     inkscape:zoom="24.660349"
     inkscape:cx="18.531773"
     inkscape:cy="8.6778983"
     inkscape:window-width="1920"
     inkscape:window-height="1017"
     inkscape:window-x="-8"
     inkscape:window-y="-8"
     inkscape:window-maximized="1"
     inkscape:current-layer="Layer_1" />
  <defs
     id="defs4">
    <style
       id="style2">.cls-1{fill:#f44336;}.cls-2{fill:#ff8a80;}.cls-3{fill:#ffebee;}</style>
  </defs>
  <title
     id="title6" />
  <path
     class="cls-1"
     d="M16.5,22h-9a3,3,0,0,1-3-3V5a3,3,0,0,1,3-3h6.59a1,1,0,0,1,.7.29l4.42,4.42a1,1,0,0,1,.29.7V19A3,3,0,0,1,16.5,22Z"
     id="path8"
     style="fill:#1a1a1a" />
  <path
     class="cls-2"
     d="M18.8,7.74H15.2a1.5,1.5,0,0,1-1.5-1.5V2.64a.55.55,0,0,1,.94-.39L19.19,6.8A.55.55,0,0,1,18.8,7.74Z"
     id="path10"
     style="fill:#4d4d4d" />
  <text
     xml:space="preserve"
     style="font-style:normal;font-variant:normal;font-weight:bold;font-stretch:normal;font-size:5.33333px;line-height:1.25;font-family:'Comic Sans MS';-inkscape-font-specification:'Comic Sans MS Bold';fill:#ffffff"
     x="6.2230654"
     y="18.69083"
     id="text230"><tspan
       sodipodi:role="line"
       id="tspan228"
       x="6.2230654"
       y="18.69083">mscz</tspan></text>
</svg>
